<svg
  id="a4d2fda8-3176-4705-826e-da4360a668a4"
  data-name="Calque 1"
  xmlns="http://www.w3.org/2000/svg"
  viewBox="0 0 24 24"
>
  <title>eye</title>
  <g id="a5201bc3-facb-4108-b66f-2f54b00fcd7a" data-name="eye-2">
    <path
      d="M12,16.33a4.33,4.33,0,0,1,0-8.66h0a4.326,4.326,0,0,1,4.326,4.321V12A4.334,4.334,0,0,1,12,16.33Zm0-7.16h0A2.83,2.83,0,1,0,14.83,12v-.008A2.827,2.827,0,0,0,12,9.17Z"
      transform="translate(0 0)"
    />
    <path
      d="M12,21.02c-3.755,0-7.307-2.2-9.743-6.028a6.052,6.052,0,0,1-.022-5.957C4.694,5.167,8.245,2.97,12,2.97S19.3,5.167,21.743,9a6.056,6.056,0,0,1,.023,5.958C19.307,18.822,15.756,21.02,12,21.02ZM12,4.47C8.768,4.47,5.679,6.414,3.523,9.8a4.534,4.534,0,0,0,.022,4.423c2.133,3.351,5.223,5.3,8.455,5.3s6.322-1.944,8.478-5.332a4.542,4.542,0,0,0-.023-4.423C18.317,6.414,15.228,4.47,12,4.47Z"
      transform="translate(0 0)"
    />
    <path
      id="b0958b4d-7866-4a70-96d0-3ceaa7dfc581"
      data-name="Vector-3"
      d="M24,24H0V0H24Z"
      transform="translate(0 0)"
      fill="none"
    />
  </g>
</svg>
