<svg
  id="aa5aa047-e916-4dfd-860d-a570c3b20e77"
  data-name="Calque 1"
  xmlns="http://www.w3.org/2000/svg"
  viewBox="0 0 24 24"
>
  <title>eye-none</title>
  <g
    id="a34c4022-7294-492e-a2e4-cbea6983f91b"
    data-name="vuesax linear eye-slash"
  >
    <g id="f64f13e7-4eb5-4b6b-be2b-d6216a7407e0" data-name="eye-slash">
      <path
        d="M9.47,15.28a.748.748,0,0,1-.528-.217,4.329,4.329,0,0,1,3.026-7.4h.021a4.3,4.3,0,0,1,3.045,1.254.79.79,0,0,1,.235.543.768.768,0,0,1-.208.543L10,15.061A.747.747,0,0,1,9.47,15.28Zm2.518-6.12h-.013A2.829,2.829,0,0,0,9.538,13.4L13.4,9.54A2.789,2.789,0,0,0,11.988,9.16Z"
      />
      <path
        d="M5.6,18.52a.749.749,0,0,1-.493-.185A15.075,15.075,0,0,1,2.255,15a6.051,6.051,0,0,1-.02-5.954C4.694,5.177,8.245,2.98,12,2.98a10.453,10.453,0,0,1,6.277,2.2.75.75,0,0,1-.923,1.182A8.939,8.939,0,0,0,11.991,4.48c-3.222,0-6.312,1.944-8.468,5.332a4.532,4.532,0,0,0,.022,4.422A13.525,13.525,0,0,0,6.093,17.2.75.75,0,0,1,5.6,18.52Z"
      />
      <path
        d="M12,21.02a9.911,9.911,0,0,1-3.875-.8.75.75,0,1,1,.589-1.379A8.444,8.444,0,0,0,12,19.52c3.229,0,6.319-1.944,8.475-5.332a4.542,4.542,0,0,0-.023-4.423A15.641,15.641,0,0,0,19.467,8.4a.75.75,0,0,1,1.166-.944A17.327,17.327,0,0,1,21.742,9a6.056,6.056,0,0,1,.024,5.959C19.307,18.822,15.756,21.02,12,21.02Z"
      />
      <path
        d="M12.689,16.27a.75.75,0,0,1-.142-1.487,2.8,2.8,0,0,0,2.226-2.226.75.75,0,0,1,1.473.286,4.3,4.3,0,0,1-3.413,3.413A.717.717,0,0,1,12.689,16.27Z"
      />
      <path
        d="M2,22.75a.75.75,0,0,1-.53-1.28L8.94,14A.75.75,0,0,1,10,15.061L2.53,22.53A.744.744,0,0,1,2,22.75Z"
      />
      <path
        d="M14.53,10.22A.75.75,0,0,1,14,8.94l7.47-7.47a.75.75,0,0,1,1.06,1.06L15.061,10A.746.746,0,0,1,14.53,10.22Z"
      />
      <path
        id="bbe89a40-8688-4aa0-9744-b4a55cfc963f"
        data-name="Vector-10"
        d="M24,24H0V0H24Z"
        fill="none"
      />
    </g>
  </g>
</svg>
